<mxfile host="app.diagrams.net" modified="2023-07-11T15:58:56.507Z" agent="Mozilla/5.0 (Windows NT 10.0; Win64; x64) AppleWebKit/537.36 (KHTML, like Gecko) Chrome/114.0.0.0 Safari/537.36" version="21.6.2" etag="FXvSn2Oe0BSUfBCSH4Em" type="github">
  <diagram name="Strona-1" id="-sia4B2qwj5zWvYaiYBY">
    <mxGraphModel>
      <root>
        <mxCell id="0" />
        <mxCell id="1" parent="0" />
      </root>
    </mxGraphModel>
  </diagram>
</mxfile>
